<svg data-v-423bf9ae="" xmlns="http://www.w3.org/2000/svg" viewBox="0 0 508 90" class="iconLeftSlogan"><!----><!----><!----><g data-v-423bf9ae="" id="aa43d063-faca-4661-9b6a-4bba985cf30f" fill="#000000" transform="matrix(5.940593835033989,0,0,5.940593835033989,109.64357944587647,-19.24752479741978)"><path d="M7.26 3.82L0.06 3.82L0.06 5.09L2.93 5.09L2.93 13.15L4.42 13.15L4.42 5.09L7.26 5.09ZM11.29 6.36C10.50 6.36 9.98 6.74 9.60 7.41L9.42 6.53L8.20 6.53L8.20 13.15L9.61 13.15L9.61 9.70C9.61 8.62 10.18 7.66 11.21 7.66C11.45 7.66 11.67 7.70 11.86 7.79L12.28 6.58C12.10 6.47 11.73 6.36 11.29 6.36ZM15.17 13.34C16.10 13.34 16.98 12.94 17.43 12.31L17.65 13.15L18.84 13.15L18.84 9.19C18.84 7.31 17.86 6.36 15.91 6.36C14.93 6.36 14.12 6.61 13.49 7.10L14.12 8.08C14.55 7.70 15.12 7.51 15.76 7.51C16.81 7.51 17.43 8.01 17.43 8.90L17.43 9.45L17.25 9.39C14.38 8.31 12.80 9.79 12.80 11.21C12.80 12.45 13.85 13.34 15.17 13.34ZM15.59 12.25C14.76 12.25 14.29 11.72 14.29 11.11C14.29 10.34 15.18 9.57 17.24 10.30L17.43 10.35L17.43 10.54C17.43 11.62 16.55 12.25 15.59 12.25ZM25.45 3.24L25.45 7.32C24.94 6.72 24.21 6.36 23.26 6.36C21.54 6.36 20.17 7.69 20.17 9.84C20.17 12.00 21.54 13.31 23.26 13.31C24.25 13.31 25.02 12.91 25.54 12.25L25.71 13.15L26.86 13.15L26.86 3.24ZM23.60 12.12C22.40 12.12 21.61 11.14 21.61 9.84C21.61 8.55 22.40 7.55 23.60 7.55C24.84 7.55 25.64 8.55 25.64 9.84C25.64 11.14 24.84 12.12 23.60 12.12ZM34.91 9.70C34.91 7.73 33.59 6.36 31.66 6.36C29.66 6.36 28.25 7.89 28.25 9.84C28.25 11.80 29.65 13.31 31.82 13.31C32.97 13.31 33.94 12.92 34.53 12.25L33.56 11.46C33.13 11.94 32.56 12.19 31.81 12.19C30.57 12.19 29.84 11.33 29.74 10.15L34.91 10.15ZM31.66 7.50C32.70 7.50 33.37 8.12 33.51 9.17L29.79 9.17C30.00 8.17 30.68 7.50 31.66 7.50ZM35.66 12.22C36.14 12.88 37.14 13.34 38.38 13.34C40.02 13.34 41.02 12.54 41.02 11.35C41.02 9.00 37.52 9.79 37.52 8.36C37.52 7.86 37.90 7.53 38.67 7.51C39.16 7.50 39.71 7.73 40.10 8.11L40.88 7.22C40.44 6.75 39.59 6.36 38.62 6.36C37.04 6.36 36.08 7.19 36.08 8.41C36.08 10.82 39.52 10.09 39.52 11.38C39.52 11.87 39.11 12.21 38.30 12.21C37.64 12.21 37.04 11.97 36.56 11.35ZM45.44 11.93C45.35 11.99 45.12 12.06 44.84 12.06C44.39 12.06 44.11 11.80 44.11 11.20L44.11 7.67L45.51 7.67L45.51 6.53L44.11 6.53L44.11 4.64L42.70 4.64L42.70 6.53L41.82 6.53L41.82 7.67L42.70 7.67L42.70 11.32C42.70 12.91 43.69 13.27 44.51 13.27C45.03 13.27 45.46 13.17 45.63 13.08ZM48.81 13.34C49.74 13.34 50.62 12.94 51.07 12.31L51.29 13.15L52.49 13.15L52.49 9.19C52.49 7.31 51.51 6.36 49.55 6.36C48.58 6.36 47.76 6.61 47.13 7.10L47.76 8.08C48.20 7.70 48.77 7.51 49.41 7.51C50.46 7.51 51.07 8.01 51.07 8.90L51.07 9.45L50.90 9.39C48.02 8.31 46.45 9.79 46.45 11.21C46.45 12.45 47.50 13.34 48.81 13.34ZM49.23 12.25C48.40 12.25 47.94 11.72 47.94 11.11C47.94 10.34 48.82 9.57 50.88 10.30L51.07 10.35L51.07 10.54C51.07 11.62 50.20 12.25 49.23 12.25ZM57.28 13.34C58.20 13.34 58.95 13.07 59.56 12.60L58.74 11.58C58.38 11.93 57.87 12.13 57.31 12.13C56.01 12.13 55.24 11.14 55.24 9.84C55.24 8.55 56.01 7.57 57.31 7.57C57.87 7.57 58.38 7.77 58.74 8.12L59.56 7.10C58.95 6.64 58.20 6.36 57.28 6.36C55.23 6.36 53.80 7.89 53.80 9.84C53.80 11.81 55.23 13.34 57.28 13.34ZM65.17 13.15L67.00 13.15L63.93 9.13L66.60 6.53L64.79 6.53L62.07 9.17L62.07 3.24L60.65 3.24L60.65 13.15L62.07 13.15L62.07 10.94L62.96 10.08Z"></path></g><defs data-v-423bf9ae=""><linearGradient data-v-423bf9ae="" gradientTransform="rotate(25)" id="09dca966-1323-4704-a6c0-163b081410c4" x1="0%" y1="0%" x2="100%" y2="0%"><stop data-v-423bf9ae="" offset="0%" style="stop-color: rgb(208, 160, 112); stop-opacity: 1;"></stop><stop data-v-423bf9ae="" offset="100%" style="stop-color: rgb(107, 227, 113); stop-opacity: 1;"></stop></linearGradient></defs><g data-v-423bf9ae="" id="bbec05bd-832e-486c-a498-33492848368a" transform="matrix(2.8125,0,0,2.8125,0,0)" stroke="none" fill="url(#09dca966-1323-4704-a6c0-163b081410c4)"><path d="M0 16l16 16 16-16L16 0 0 16zm16 13.172L2.828 16 16 2.828 29.172 16 16 29.172z"></path><path d="M14.751 9.991v4.76h-2.262v-4.76H9.991v12.018h2.498v-4.76h2.262v4.76h2.498v-4.76h2.262v4.76h2.498V9.991h-2.498v4.76h-2.262v-4.76z"></path></g><!----><g data-v-423bf9ae="" id="65ef8af2-f578-4dac-bd6d-749527204a91" fill="#000000" transform="matrix(1.1231445460069285,0,0,1.1231445460069285,109.6855201836033,56.29362316660856)"><path d="M0.28 3.72L0.28 3.72L0.28 3.72Q0.28 3.51 0.41 3.51L0.41 3.51L0.41 3.51Q0.45 3.51 0.59 3.52L0.59 3.52L0.59 3.52Q0.73 3.53 0.97 3.53L0.97 3.53L0.97 3.53Q1.25 3.53 2.08 3.52L2.08 3.52L2.08 3.52Q2.91 3.51 3.01 3.51L3.01 3.51L3.01 3.51Q3.33 3.51 3.82 3.49L3.82 3.49L3.82 3.49Q4.31 3.47 4.55 3.47L4.55 3.47L4.55 3.47Q5.82 3.47 6.68 4.08L6.68 4.08L6.68 4.08Q7.53 4.69 7.53 5.81L7.53 5.81L7.53 5.81Q7.53 6.22 7.38 6.57L7.38 6.57L7.38 6.57Q7.24 6.93 7.04 7.15L7.04 7.15L7.04 7.15Q6.83 7.38 6.63 7.54L6.63 7.54L6.63 7.54Q6.43 7.70 6.28 7.79L6.28 7.79L6.28 7.79Q6.13 7.88 6.13 7.90L6.13 7.90L6.13 7.90Q6.13 7.94 6.37 8.00L6.37 8.00L6.37 8.00Q6.61 8.06 6.94 8.21L6.94 8.21L6.94 8.21Q7.28 8.36 7.61 8.61L7.61 8.61L7.61 8.61Q7.94 8.86 8.18 9.36L8.18 9.36L8.18 9.36Q8.41 9.86 8.41 10.53L8.41 10.53L8.41 10.53Q8.41 11.13 8.06 11.82L8.06 11.82L8.06 11.82Q7.71 12.50 7.24 12.82L7.24 12.82L7.24 12.82Q6.62 13.26 6.09 13.40L6.09 13.40L6.09 13.40Q5.56 13.55 4.80 13.55L4.80 13.55L4.80 13.55Q4.24 13.55 3.32 13.47L3.32 13.47L3.32 13.47Q2.39 13.40 2.30 13.40L2.30 13.40L2.30 13.40Q2.14 13.40 1.74 13.43L1.74 13.43L1.74 13.43Q1.34 13.45 1.09 13.45L1.09 13.45L0.90 13.45L0.90 13.45Q0.60 13.45 0.60 13.24L0.60 13.24L0.60 13.24Q0.60 13.05 0.76 13.05L0.76 13.05L0.76 13.05Q0.84 13.05 0.94 13.04L0.94 13.04L0.94 13.04Q1.04 13.03 1.08 13.03L1.08 13.03L1.08 13.03Q1.20 13.03 1.32 12.94L1.32 12.94L1.32 12.94Q1.44 12.85 1.57 12.54L1.57 12.54L1.57 12.54Q1.69 12.22 1.71 11.73L1.71 11.73L1.71 11.73Q1.75 10.82 1.75 7.36L1.75 7.36L1.75 4.98L1.75 4.98Q1.75 4.89 1.72 4.75L1.72 4.75L1.72 4.75Q1.68 4.62 1.57 4.40L1.57 4.40L1.57 4.40Q1.47 4.19 1.20 4.04L1.20 4.04L1.20 4.04Q0.92 3.89 0.52 3.89L0.52 3.89L0.52 3.89Q0.28 3.89 0.28 3.72ZM2.81 12.15L2.81 12.15L2.81 12.15Q2.81 12.99 4.19 12.99L4.19 12.99L4.51 12.99L4.51 12.99Q5.26 12.99 5.71 12.92L5.71 12.92L5.71 12.92Q6.37 12.81 6.80 12.24L6.80 12.24L6.80 12.24Q7.22 11.66 7.22 10.86L7.22 10.86L7.22 10.86Q7.22 10.18 6.97 9.68L6.97 9.68L6.97 9.68Q6.72 9.18 6.40 8.93L6.40 8.93L6.40 8.93Q6.08 8.68 5.63 8.54L5.63 8.54L5.63 8.54Q5.19 8.40 4.95 8.37L4.95 8.37L4.95 8.37Q4.70 8.34 4.48 8.34L4.48 8.34L4.48 8.34Q4.03 8.34 3.75 8.34L3.75 8.34L3.75 8.34Q3.46 8.33 3.38 8.33L3.38 8.33L3.38 8.33Q3.30 8.33 3.25 8.32L3.25 8.32L3.25 8.32Q3.21 8.32 3.18 8.32L3.18 8.32L3.18 8.32Q3.05 8.32 3.00 8.35L3.00 8.35L3.00 8.35Q2.94 8.39 2.89 8.62L2.89 8.62L2.89 8.62Q2.84 8.85 2.83 9.28L2.83 9.28L2.83 9.28Q2.83 9.72 2.83 10.58L2.83 10.58L2.83 10.70L2.83 10.70Q2.83 11.21 2.83 11.54L2.83 11.54L2.83 11.54Q2.83 11.86 2.82 11.99L2.82 11.99L2.82 11.99Q2.81 12.12 2.81 12.15ZM2.90 5.40L2.90 5.81L2.90 5.81Q2.90 6.51 2.91 6.90L2.91 6.90L2.91 6.90Q2.91 7.29 2.94 7.50L2.94 7.50L2.94 7.50Q2.97 7.71 3.00 7.77L3.00 7.77L3.00 7.77Q3.02 7.83 3.08 7.83L3.08 7.83L3.08 7.83Q3.47 7.87 3.79 7.87L3.79 7.87L4.69 7.87L4.69 7.87Q5.57 7.87 6.01 7.41L6.01 7.41L6.01 7.41Q6.45 6.94 6.45 6.22L6.45 6.22L6.45 6.22Q6.45 5.43 5.72 4.70L5.72 4.70L5.72 4.70Q4.98 3.96 3.63 3.96L3.63 3.96L3.63 3.96Q3.19 3.96 3.04 4.22L3.04 4.22L3.04 4.22Q2.90 4.48 2.90 5.40L2.90 5.40ZM16.10 3.68L16.10 3.68L16.10 3.68Q16.10 3.61 16.11 3.58L16.11 3.58L16.11 3.58Q16.13 3.56 16.20 3.53L16.20 3.53L16.20 3.53Q16.27 3.50 16.42 3.50L16.42 3.50L16.42 3.50Q16.58 3.50 17.07 3.53L17.07 3.53L17.07 3.53Q17.56 3.56 18.00 3.56L18.00 3.56L18.00 3.56Q18.28 3.56 18.52 3.54L18.52 3.54L18.52 3.54Q18.75 3.53 19.32 3.53L19.32 3.53L19.32 3.53Q19.61 3.53 19.61 3.72L19.61 3.72L19.61 3.72Q19.61 3.85 19.52 3.88L19.52 3.88L19.52 3.88Q19.42 3.91 19.27 3.92L19.27 3.92L19.27 3.92Q19.12 3.93 18.98 4.02L18.98 4.02L18.98 4.02Q18.83 4.10 18.73 4.43L18.73 4.43L18.73 4.43Q18.63 4.76 18.63 5.32L18.63 5.32L18.63 5.71L18.63 5.71Q18.63 6.37 18.63 7.37L18.63 7.37L18.63 7.37Q18.62 8.37 18.62 8.74L18.62 8.74L18.62 8.74Q18.62 9.17 18.63 9.39L18.63 9.39L18.63 9.39Q18.63 9.62 18.66 10.04L18.66 10.04L18.66 10.04Q18.69 10.47 18.74 10.72L18.74 10.72L18.74 10.72Q18.79 10.96 18.90 11.32L18.90 11.32L18.90 11.32Q19.01 11.68 19.17 11.89L19.17 11.89L19.17 11.89Q19.33 12.10 19.58 12.35L19.58 12.35L19.58 12.35Q19.82 12.60 20.15 12.73L20.15 12.73L20.15 12.73Q20.47 12.87 20.90 12.96L20.90 12.96L20.90 12.96Q21.34 13.05 21.87 13.05L21.87 13.05L21.87 13.05Q22.32 13.05 22.57 13.03L22.57 13.03L22.57 13.03Q22.82 13.02 23.26 12.94L23.26 12.94L23.26 12.94Q23.70 12.87 23.96 12.72L23.96 12.72L23.96 12.72Q24.22 12.57 24.55 12.27L24.55 12.27L24.55 12.27Q24.88 11.97 25.06 11.54L25.06 11.54L25.06 11.54Q25.24 11.10 25.37 10.43L25.37 10.43L25.37 10.43Q25.49 9.76 25.49 8.90L25.49 8.90L25.49 8.90Q25.49 7.49 25.49 6.75L25.49 6.75L25.49 6.75Q25.48 6.01 25.48 5.94L25.48 5.94L25.48 5.94Q25.48 5.45 25.46 5.17L25.46 5.17L25.46 5.17Q25.44 4.89 25.32 4.55L25.32 4.55L25.32 4.55Q25.20 4.21 24.98 4.06L24.98 4.06L24.98 4.06Q24.84 3.96 24.61 3.93L24.61 3.93L24.61 3.93Q24.39 3.89 24.25 3.87L24.25 3.87L24.25 3.87Q24.11 3.85 24.11 3.75L24.11 3.75L24.11 3.75Q24.11 3.53 24.39 3.53L24.39 3.53L24.39 3.53Q24.47 3.53 24.93 3.54L24.93 3.54L24.93 3.54Q25.40 3.56 25.47 3.56L25.47 3.56L25.47 3.56Q25.80 3.56 26.18 3.54L26.18 3.54L26.18 3.54Q26.56 3.51 26.66 3.51L26.66 3.51L26.66 3.51Q26.95 3.51 26.95 3.70L26.95 3.70L26.95 3.70Q26.95 3.81 26.65 3.98L26.65 3.98L26.65 3.98Q26.35 4.16 26.28 4.30L26.28 4.30L26.28 4.30Q26.12 4.59 26.12 5.22L26.12 5.22L26.12 5.22Q26.12 5.32 26.13 5.62L26.13 5.62L26.13 5.62Q26.14 5.92 26.14 6.16L26.14 6.16L26.14 6.16Q26.14 8.85 25.91 10.28L25.91 10.28L25.91 10.28Q25.69 11.70 25.23 12.36L25.23 12.36L25.23 12.36Q24.78 13.01 23.87 13.40L23.87 13.40L23.87 13.40Q23.13 13.71 21.87 13.71L21.87 13.71L21.87 13.71Q19.53 13.71 18.55 12.81L18.55 12.81L18.55 12.81Q17.78 12.10 17.60 11.09L17.60 11.09L17.60 11.09Q17.42 10.09 17.42 7.64L17.42 7.64L17.42 7.41L17.42 7.41Q17.42 6.86 17.43 6.20L17.43 6.20L17.43 6.20Q17.44 5.54 17.44 5.39L17.44 5.39L17.44 5.39Q17.44 4.62 17.26 4.33L17.26 4.33L17.26 4.33Q17.08 4.05 16.41 3.95L16.41 3.95L16.41 3.95Q16.10 3.91 16.10 3.68ZM35.06 10.82L35.06 10.82L35.06 10.82Q35.06 10.53 35.25 10.53L35.25 10.53L35.25 10.53Q35.43 10.53 35.48 10.67L35.48 10.67L35.48 10.67Q35.62 11.00 35.74 11.25L35.74 11.25L35.74 11.25Q35.85 11.49 36.12 11.85L36.12 11.85L36.12 11.85Q36.39 12.21 36.69 12.44L36.69 12.44L36.69 12.44Q37.00 12.67 37.49 12.84L37.49 12.84L37.49 12.84Q37.97 13.01 38.54 13.01L38.54 13.01L38.54 13.01Q39.59 13.01 40.23 12.45L40.23 12.45L40.23 12.45Q40.87 11.90 40.87 11.00L40.87 11.00L40.87 11.00Q40.87 10.35 40.43 9.90L40.43 9.90L40.43 9.90Q40.00 9.46 39.44 9.27L39.44 9.27L39.44 9.27Q38.88 9.09 38.02 8.77L38.02 8.77L38.02 8.77Q37.16 8.46 36.61 8.13L36.61 8.13L36.61 8.13Q35.34 7.38 35.34 6.08L35.34 6.08L35.34 6.08Q35.34 4.83 36.24 4.08L36.24 4.08L36.24 4.08Q37.14 3.33 38.58 3.33L38.58 3.33L38.58 3.33Q39.12 3.33 39.85 3.56L39.85 3.56L39.85 3.56Q40.59 3.79 40.60 3.79L40.60 3.79L40.60 3.79Q40.64 3.79 40.75 3.74L40.75 3.74L40.75 3.74Q40.87 3.68 40.92 3.68L40.92 3.68L40.92 3.68Q41.10 3.68 41.13 3.79L41.13 3.79L41.13 3.79Q41.43 5.49 41.43 5.70L41.43 5.70L41.43 5.70Q41.43 6.09 41.23 6.09L41.23 6.09L41.23 6.09Q41.10 6.09 41.03 5.89L41.03 5.89L41.03 5.89Q40.87 5.49 40.71 5.24L40.71 5.24L40.71 5.24Q40.54 4.98 40.47 4.91L40.47 4.91L40.47 4.91Q40.40 4.84 40.11 4.58L40.11 4.58L40.11 4.58Q39.35 3.91 38.28 3.91L38.28 3.91L38.28 3.91Q37.41 3.91 36.82 4.33L36.82 4.33L36.82 4.33Q36.23 4.75 36.23 5.46L36.23 5.46L36.23 5.46Q36.23 6.09 36.58 6.50L36.58 6.50L36.58 6.50Q36.92 6.90 37.49 7.13L37.49 7.13L37.49 7.13Q38.07 7.35 38.70 7.55L38.70 7.55L38.70 7.55Q39.33 7.74 40.03 8.09L40.03 8.09L40.03 8.09Q40.74 8.44 41.20 8.93L41.20 8.93L41.20 8.93Q41.76 9.53 41.76 10.43L41.76 10.43L41.76 10.43Q41.76 11.90 40.82 12.76L40.82 12.76L40.82 12.76Q39.89 13.62 38.50 13.62L38.50 13.62L38.50 13.62Q37.53 13.62 36.95 13.52L36.95 13.52L36.95 13.52Q36.36 13.41 35.74 13.09L35.74 13.09L35.74 13.09Q35.56 12.98 35.31 12.00L35.31 12.00L35.31 12.00Q35.06 11.02 35.06 10.82ZM49.85 3.71L49.85 3.71L49.85 3.71Q49.85 3.50 50.25 3.50L50.25 3.50L50.25 3.50Q50.39 3.50 50.89 3.53L50.89 3.53L50.89 3.53Q51.39 3.56 51.83 3.56L51.83 3.56L51.83 3.56Q52.09 3.56 52.34 3.54L52.34 3.54L52.34 3.54Q52.58 3.53 53.06 3.53L53.06 3.53L53.06 3.53Q53.44 3.53 53.44 3.72L53.44 3.72L53.44 3.72Q53.44 3.84 52.79 4.10L52.79 4.10L52.79 4.10Q52.35 4.28 52.35 5.71L52.35 5.71L52.35 5.71Q52.35 7.60 52.33 9.05L52.33 9.05L52.33 9.05Q52.30 10.50 52.30 10.89L52.30 10.89L52.30 10.89Q52.30 12.07 52.65 12.59L52.65 12.59L52.65 12.59Q52.96 13.02 53.33 13.02L53.33 13.02L53.33 13.02Q53.35 13.02 53.47 13.03L53.47 13.03L53.47 13.03Q53.58 13.03 53.61 13.03L53.61 13.03L53.61 13.03Q53.70 13.03 53.80 13.08L53.80 13.08L53.80 13.08Q53.90 13.13 53.90 13.19L53.90 13.19L53.90 13.19Q53.90 13.34 53.82 13.39L53.82 13.39L53.82 13.39Q53.75 13.44 53.55 13.44L53.55 13.44L53.55 13.44Q53.13 13.44 52.77 13.41L52.77 13.41L52.77 13.41Q52.42 13.38 52.22 13.38L52.22 13.38L52.22 13.38Q51.83 13.38 51.37 13.42L51.37 13.42L51.37 13.42Q50.90 13.45 50.68 13.45L50.68 13.45L50.68 13.45Q50.05 13.45 50.05 13.24L50.05 13.24L50.05 13.24Q50.05 13.12 50.18 13.07L50.18 13.07L50.18 13.07Q50.32 13.02 50.48 13.00L50.48 13.00L50.48 13.00Q50.65 12.98 50.83 12.82L50.83 12.82L50.83 12.82Q51.02 12.66 51.09 12.35L51.09 12.35L51.09 12.35Q51.11 12.25 51.18 10.76L51.18 10.76L51.18 10.76Q51.24 9.27 51.24 8.61L51.24 8.61L51.24 7.81L51.24 7.81Q51.24 7.63 51.25 7.12L51.25 7.12L51.25 7.12Q51.25 6.61 51.25 6.30L51.25 6.30L51.25 5.66L51.25 5.66Q51.25 5.04 51.20 4.63L51.20 4.63L51.20 4.63Q51.16 4.30 50.83 4.12L50.83 4.12L50.83 4.12Q50.50 3.93 50.15 3.92L50.15 3.92L50.15 3.92Q49.85 3.91 49.85 3.71ZM61.45 3.77L61.45 3.77L61.45 3.77Q61.45 3.68 61.54 3.60L61.54 3.60L61.54 3.60Q61.64 3.53 61.80 3.53L61.80 3.53L61.80 3.53Q61.88 3.53 62.08 3.54L62.08 3.54L62.08 3.54Q62.27 3.54 62.33 3.54L62.33 3.54L62.33 3.54Q62.54 3.54 62.72 3.53L62.72 3.53L62.72 3.53Q62.90 3.51 63.01 3.51L63.01 3.51L63.01 3.51Q63.14 3.51 63.31 3.59L63.31 3.59L63.31 3.59Q63.48 3.67 63.50 3.75L63.50 3.75L63.50 3.75Q63.53 3.79 63.66 3.94L63.66 3.94L63.66 3.94Q63.78 4.09 63.99 4.33L63.99 4.33L63.99 4.33Q64.20 4.56 64.37 4.79L64.37 4.79L64.37 4.79Q66.28 7.27 69.47 10.77L69.47 10.77L69.47 10.77Q69.55 10.86 69.67 10.99L69.67 10.99L69.67 10.99Q69.79 11.12 69.84 11.18L69.84 11.18L69.84 11.18Q69.89 11.24 69.94 11.30L69.94 11.30L69.94 11.30Q70 11.35 70.03 11.38L70.03 11.38L70.03 11.38Q70.07 11.40 70.10 11.40L70.10 11.40L70.10 11.40Q70.24 11.40 70.24 10.53L70.24 10.53L70.24 8.89L70.24 8.89Q70.24 7.95 70.23 7.31L70.23 7.31L70.23 7.31Q70.22 6.66 70.22 6.38L70.22 6.38L70.22 6.38Q70.21 6.09 70.21 6.02L70.21 6.02L70.21 5.92L70.21 5.92Q70.21 5.45 70.15 5.11L70.15 5.11L70.15 5.11Q70.08 4.77 70 4.59L70 4.59L70 4.59Q69.92 4.41 69.76 4.28L69.76 4.28L69.76 4.28Q69.59 4.16 69.48 4.12L69.48 4.12L69.48 4.12Q69.37 4.09 69.16 4.05L69.16 4.05L69.16 4.05Q68.95 4.00 68.87 3.98L68.87 3.98L68.87 3.98Q68.59 3.89 68.59 3.74L68.59 3.74L68.59 3.74Q68.59 3.53 68.85 3.53L68.85 3.53L68.85 3.53Q68.94 3.53 69.52 3.54L69.52 3.54L69.52 3.54Q70.11 3.54 70.18 3.54L70.18 3.54L70.18 3.54Q70.52 3.54 70.93 3.53L70.93 3.53L70.93 3.53Q71.34 3.51 71.44 3.51L71.44 3.51L71.44 3.51Q71.68 3.51 71.77 3.56L71.77 3.56L71.77 3.56Q71.86 3.61 71.86 3.75L71.86 3.75L71.86 3.75Q71.86 3.81 71.78 3.86L71.78 3.86L71.78 3.86Q71.71 3.91 71.62 3.94L71.62 3.94L71.62 3.94Q71.54 3.98 71.46 4.00L71.46 4.00L71.37 4.03L71.37 4.03Q70.91 4.28 70.91 5.61L70.91 5.61L70.91 6.15L70.91 6.15Q70.91 7.21 70.83 9.83L70.83 9.83L70.83 9.83Q70.76 12.46 70.76 13.08L70.76 13.08L70.76 13.36L70.76 13.36Q70.76 13.68 70.56 13.68L70.56 13.68L70.56 13.68Q70.43 13.68 70.34 13.58L70.34 13.58L70.34 13.58Q65.69 8.19 64.79 7.17L64.79 7.17L64.79 7.17Q63.88 6.16 63.78 6.16L63.78 6.16L63.78 6.16Q63.64 6.16 63.64 7.11L63.64 7.11L63.64 7.11Q63.64 8.44 63.59 9.97L63.59 9.97L63.59 9.97Q63.53 11.51 63.53 11.65L63.53 11.65L63.53 11.65Q63.53 12.28 63.75 12.61L63.75 12.61L63.75 12.61Q63.97 12.94 64.22 12.98L64.22 12.98L64.22 12.98Q64.47 13.02 64.69 13.07L64.69 13.07L64.69 13.07Q64.90 13.12 64.90 13.26L64.90 13.26L64.90 13.26Q64.90 13.41 64.86 13.45L64.86 13.45L64.86 13.45Q64.81 13.50 64.68 13.50L64.68 13.50L64.68 13.50Q64.58 13.50 64.24 13.48L64.24 13.48L64.24 13.48Q63.90 13.47 63.18 13.47L63.18 13.47L63.18 13.47Q63.06 13.47 62.66 13.48L62.66 13.48L62.66 13.48Q62.27 13.50 61.99 13.50L61.99 13.50L61.99 13.50Q61.68 13.50 61.68 13.27L61.68 13.27L61.68 13.27Q61.68 13.15 61.87 13.11L61.87 13.11L61.87 13.11Q62.05 13.08 62.31 12.89L62.31 12.89L62.31 12.89Q62.58 12.71 62.72 12.21L62.72 12.21L62.72 12.21Q62.80 11.89 62.93 9.60L62.93 9.60L62.93 9.60Q63.06 7.32 63.06 6.45L63.06 6.45L63.06 6.45Q63.06 5.25 62.72 4.65L62.72 4.65L62.72 4.65Q62.38 4.06 61.63 3.98L61.63 3.98L61.63 3.98Q61.45 3.96 61.45 3.77ZM79.62 3.65L79.62 3.65L79.62 3.65Q79.62 3.46 80.01 3.46L80.01 3.46L80.01 3.46Q80.07 3.46 80.19 3.47L80.19 3.47L80.19 3.47Q80.32 3.49 80.39 3.49L80.39 3.49L80.39 3.49Q80.43 3.49 81.70 3.52L81.70 3.52L81.70 3.52Q82.98 3.56 83.80 3.56L83.80 3.56L83.80 3.56Q84.10 3.56 85.25 3.53L85.25 3.53L85.25 3.53Q86.41 3.50 86.60 3.50L86.60 3.50L86.60 3.50Q86.87 3.50 86.87 3.82L86.87 3.82L86.87 3.82Q86.87 3.91 86.79 4.38L86.79 4.38L86.79 4.38Q86.70 4.84 86.70 5.25L86.70 5.25L86.70 5.25Q86.70 5.38 86.63 5.47L86.63 5.47L86.63 5.47Q86.56 5.56 86.48 5.56L86.48 5.56L86.48 5.56Q86.27 5.56 86.27 5.26L86.27 5.26L86.27 5.26Q86.27 4.89 86.03 4.58L86.03 4.58L86.03 4.58Q85.79 4.27 85.44 4.26L85.44 4.26L85.44 4.26Q84.18 4.16 83.51 4.16L83.51 4.16L83.15 4.16L83.15 4.16Q82.42 4.16 82.30 4.26L82.30 4.26L82.30 4.26Q82.18 4.37 82.15 5.01L82.15 5.01L82.15 5.01Q82.10 6.02 82.10 7.35L82.10 7.35L82.10 7.35Q82.10 8.05 82.36 8.06L82.36 8.06L82.71 8.06L83.30 8.06L83.73 8.06L83.73 8.06Q84.57 8.06 84.85 8.01L84.85 8.01L84.85 8.01Q85.13 7.95 85.36 7.80L85.36 7.80L85.36 7.80Q85.62 7.62 85.68 7.28L85.68 7.28L85.68 7.28Q85.72 7.04 85.88 7.04L85.88 7.04L85.88 7.04Q86.00 7.04 86.03 7.08L86.03 7.08L86.03 7.08Q86.06 7.13 86.06 7.27L86.06 7.27L86.06 7.27Q86.06 7.36 86.00 7.91L86.00 7.91L86.00 7.91Q85.95 8.46 85.95 8.74L85.95 8.74L85.95 8.74Q85.95 9.00 85.97 9.24L85.97 9.24L85.97 9.24Q85.99 9.48 85.99 9.59L85.99 9.59L85.99 9.59Q85.99 9.94 85.89 9.94L85.89 9.94L85.89 9.94Q85.68 9.94 85.58 9.60L85.58 9.60L85.58 9.60Q85.39 9.02 85.23 8.92L85.23 8.92L85.23 8.92Q84.94 8.72 83.89 8.72L83.89 8.72L83.89 8.72Q83.47 8.72 83.21 8.72L83.21 8.72L83.21 8.72Q82.95 8.72 82.87 8.71L82.87 8.71L82.87 8.71Q82.80 8.71 82.75 8.71L82.75 8.71L82.75 8.71Q82.70 8.71 82.66 8.71L82.66 8.71L82.66 8.71Q82.08 8.71 82.08 8.97L82.08 8.97L82.08 8.97Q82.08 9.38 82.07 9.99L82.07 9.99L82.07 9.99Q82.05 10.60 82.05 10.99L82.05 10.99L82.05 11.55L82.05 11.55Q82.05 12.56 82.39 12.66L82.39 12.66L82.39 12.66Q82.74 12.77 82.99 12.77L82.99 12.77L82.99 12.77Q84.04 12.77 84.83 12.67L84.83 12.67L84.83 12.67Q85.62 12.57 86.02 12.42L86.02 12.42L86.02 12.42Q86.42 12.28 86.69 12.10L86.69 12.10L86.69 12.10Q86.95 11.93 87.03 11.78L87.03 11.78L87.03 11.78Q87.11 11.63 87.19 11.54L87.19 11.54L87.19 11.54Q87.26 11.44 87.35 11.44L87.35 11.44L87.35 11.44Q87.51 11.44 87.51 11.68L87.51 11.68L87.51 11.68Q87.51 12.28 86.91 12.89L86.91 12.89L86.91 12.89Q86.31 13.51 85.86 13.51L85.86 13.51L85.86 13.51Q84.85 13.51 83.59 13.44L83.59 13.44L83.59 13.44Q82.32 13.37 82.01 13.37L82.01 13.37L82.01 13.37Q81.62 13.37 81.03 13.43L81.03 13.43L81.03 13.43Q80.44 13.50 80.11 13.50L80.11 13.50L80.11 13.50Q79.81 13.50 79.81 13.36L79.81 13.36L79.81 13.36Q79.81 13.23 79.81 13.19L79.81 13.19L79.81 13.19Q79.81 13.15 79.86 13.12L79.86 13.12L79.86 13.12Q79.90 13.09 79.95 13.08L79.95 13.08L79.95 13.08Q80.00 13.08 80.13 13.03L80.13 13.03L80.13 13.03Q80.26 12.99 80.42 12.92L80.42 12.92L80.42 12.92Q80.75 12.75 80.86 12.26L80.86 12.26L80.86 12.26Q80.96 11.77 80.96 10.21L80.96 10.21L80.96 8.47L80.96 8.47Q80.96 8.09 80.98 7.29L80.98 7.29L80.98 7.29Q81.00 6.50 81.00 6.05L81.00 6.05L81.00 6.05Q81.00 5.67 80.98 4.77L80.98 4.77L80.98 4.77Q80.96 4.37 80.63 4.14L80.63 4.14L80.63 4.14Q80.29 3.92 79.84 3.91L79.84 3.91L79.84 3.91Q79.62 3.91 79.62 3.65ZM95.62 10.82L95.62 10.82L95.62 10.82Q95.62 10.53 95.82 10.53L95.82 10.53L95.82 10.53Q96.00 10.53 96.04 10.67L96.04 10.67L96.04 10.67Q96.18 11.00 96.30 11.25L96.30 11.25L96.30 11.25Q96.42 11.49 96.68 11.85L96.68 11.85L96.68 11.85Q96.95 12.21 97.26 12.44L97.26 12.44L97.26 12.44Q97.57 12.67 98.05 12.84L98.05 12.84L98.05 12.84Q98.53 13.01 99.11 13.01L99.11 13.01L99.11 13.01Q100.16 13.01 100.79 12.45L100.79 12.45L100.79 12.45Q101.43 11.90 101.43 11.00L101.43 11.00L101.43 11.00Q101.43 10.35 101.00 9.90L101.00 9.90L101.00 9.90Q100.56 9.46 100.00 9.27L100.00 9.27L100.00 9.27Q99.44 9.09 98.58 8.77L98.58 8.77L98.58 8.77Q97.72 8.46 97.17 8.13L97.17 8.13L97.17 8.13Q95.90 7.38 95.90 6.08L95.90 6.08L95.90 6.08Q95.90 4.83 96.80 4.08L96.80 4.08L96.80 4.08Q97.71 3.33 99.15 3.33L99.15 3.33L99.15 3.33Q99.68 3.33 100.42 3.56L100.42 3.56L100.42 3.56Q101.15 3.79 101.16 3.79L101.16 3.79L101.16 3.79Q101.21 3.79 101.32 3.74L101.32 3.74L101.32 3.74Q101.43 3.68 101.49 3.68L101.49 3.68L101.49 3.68Q101.67 3.68 101.70 3.79L101.70 3.79L101.70 3.79Q101.99 5.49 101.99 5.70L101.99 5.70L101.99 5.70Q101.99 6.09 101.79 6.09L101.79 6.09L101.79 6.09Q101.67 6.09 101.60 5.89L101.60 5.89L101.60 5.89Q101.43 5.49 101.27 5.24L101.27 5.24L101.27 5.24Q101.11 4.98 101.04 4.91L101.04 4.91L101.04 4.91Q100.97 4.84 100.67 4.58L100.67 4.58L100.67 4.58Q99.92 3.91 98.84 3.91L98.84 3.91L98.84 3.91Q97.97 3.91 97.38 4.33L97.38 4.33L97.38 4.33Q96.80 4.75 96.80 5.46L96.80 5.46L96.80 5.46Q96.80 6.09 97.14 6.50L97.14 6.50L97.14 6.50Q97.48 6.90 98.06 7.13L98.06 7.13L98.06 7.13Q98.63 7.35 99.26 7.55L99.26 7.55L99.26 7.55Q99.89 7.74 100.60 8.09L100.60 8.09L100.60 8.09Q101.30 8.44 101.77 8.93L101.77 8.93L101.77 8.93Q102.33 9.53 102.33 10.43L102.33 10.43L102.33 10.43Q102.33 11.90 101.39 12.76L101.39 12.76L101.39 12.76Q100.45 13.62 99.06 13.62L99.06 13.62L99.06 13.62Q98.10 13.62 97.51 13.52L97.51 13.52L97.51 13.52Q96.92 13.41 96.31 13.09L96.31 13.09L96.31 13.09Q96.12 12.98 95.87 12.00L95.87 12.00L95.87 12.00Q95.62 11.02 95.62 10.82ZM110.96 10.82L110.96 10.82L110.96 10.82Q110.96 10.53 111.16 10.53L111.16 10.53L111.16 10.53Q111.34 10.53 111.38 10.67L111.38 10.67L111.38 10.67Q111.52 11.00 111.64 11.25L111.64 11.25L111.64 11.25Q111.76 11.49 112.03 11.85L112.03 11.85L112.03 11.85Q112.29 12.21 112.60 12.44L112.60 12.44L112.60 12.44Q112.91 12.67 113.39 12.84L113.39 12.84L113.39 12.84Q113.88 13.01 114.45 13.01L114.45 13.01L114.45 13.01Q115.50 13.01 116.14 12.45L116.14 12.45L116.14 12.45Q116.77 11.90 116.77 11.00L116.77 11.00L116.77 11.00Q116.77 10.35 116.34 9.90L116.34 9.90L116.34 9.90Q115.91 9.46 115.35 9.27L115.35 9.27L115.35 9.27Q114.79 9.09 113.93 8.77L113.93 8.77L113.93 8.77Q113.06 8.46 112.52 8.13L112.52 8.13L112.52 8.13Q111.24 7.38 111.24 6.08L111.24 6.08L111.24 6.08Q111.24 4.83 112.15 4.08L112.15 4.08L112.15 4.08Q113.05 3.33 114.49 3.33L114.49 3.33L114.49 3.33Q115.02 3.33 115.76 3.56L115.76 3.56L115.76 3.56Q116.49 3.79 116.51 3.79L116.51 3.79L116.51 3.79Q116.55 3.79 116.66 3.74L116.66 3.74L116.66 3.74Q116.77 3.68 116.83 3.68L116.83 3.68L116.83 3.68Q117.01 3.68 117.04 3.79L117.04 3.79L117.04 3.79Q117.33 5.49 117.33 5.70L117.33 5.70L117.33 5.70Q117.33 6.09 117.14 6.09L117.14 6.09L117.14 6.09Q117.01 6.09 116.94 5.89L116.94 5.89L116.94 5.89Q116.77 5.49 116.61 5.24L116.61 5.24L116.61 5.24Q116.45 4.98 116.38 4.91L116.38 4.91L116.38 4.91Q116.31 4.84 116.02 4.58L116.02 4.58L116.02 4.58Q115.26 3.91 114.18 3.91L114.18 3.91L114.18 3.91Q113.32 3.91 112.73 4.33L112.73 4.33L112.73 4.33Q112.14 4.75 112.14 5.46L112.14 5.46L112.14 5.46Q112.14 6.09 112.48 6.50L112.48 6.50L112.48 6.50Q112.83 6.90 113.40 7.13L113.40 7.13L113.40 7.13Q113.97 7.35 114.60 7.55L114.60 7.55L114.60 7.55Q115.23 7.74 115.94 8.09L115.94 8.09L115.94 8.09Q116.65 8.44 117.11 8.93L117.11 8.93L117.11 8.93Q117.67 9.53 117.67 10.43L117.67 10.43L117.67 10.43Q117.67 11.90 116.73 12.76L116.73 12.76L116.73 12.76Q115.79 13.62 114.41 13.62L114.41 13.62L114.41 13.62Q113.44 13.62 112.85 13.52L112.85 13.52L112.85 13.52Q112.27 13.41 111.65 13.09L111.65 13.09L111.65 13.09Q111.47 12.98 111.22 12.00L111.22 12.00L111.22 12.00Q110.96 11.02 110.96 10.82ZM136.08 8.90L136.08 8.90L136.08 8.90Q136.08 7.38 136.67 6.16L136.67 6.16L136.67 6.16Q137.26 4.94 138.48 4.19L138.48 4.19L138.48 4.19Q139.71 3.44 141.39 3.44L141.39 3.44L141.39 3.44Q142.24 3.44 143.11 3.70L143.11 3.70L143.11 3.70Q143.98 3.95 144.49 4.20L144.49 4.20L145.01 4.47L145.01 4.47Q145.05 4.47 145.15 4.40L145.15 4.40L145.15 4.40Q145.25 4.33 145.31 4.33L145.31 4.33L145.31 4.33Q145.38 4.33 145.45 4.38L145.45 4.38L145.45 4.38Q145.52 4.44 145.52 4.55L145.52 4.55L145.52 4.55Q145.53 4.96 145.58 5.41L145.58 5.41L145.58 5.41Q145.63 5.87 145.67 6.16L145.67 6.16L145.67 6.16Q145.71 6.45 145.71 6.51L145.71 6.51L145.71 6.51Q145.71 6.76 145.54 6.76L145.54 6.76L145.54 6.76Q145.42 6.76 145.31 6.57L145.31 6.57L145.31 6.57Q143.95 4.02 141.39 4.02L141.39 4.02L141.39 4.02Q139.64 4.02 138.52 5.14L138.52 5.14L138.52 5.14Q137.40 6.26 137.40 8.06L137.40 8.06L137.40 8.06Q137.40 9.06 137.66 9.93L137.66 9.93L137.66 9.93Q137.91 10.79 138.44 11.51L138.44 11.51L138.44 11.51Q138.96 12.24 139.89 12.66L139.89 12.66L139.89 12.66Q140.81 13.08 142.04 13.08L142.04 13.08L142.04 13.08Q144.06 13.08 145.43 10.98L145.43 10.98L145.43 10.98Q145.49 10.88 145.64 10.88L145.64 10.88L145.64 10.88Q145.77 10.88 145.77 11.07L145.77 11.07L145.77 11.07Q145.77 11.23 145.72 11.49L145.72 11.49L145.72 11.49Q145.67 11.75 145.60 12.06L145.60 12.06L145.60 12.06Q145.53 12.38 145.52 12.45L145.52 12.45L145.52 12.45Q145.49 12.60 145.29 12.70L145.29 12.70L145.29 12.70Q144.54 13.06 144.11 13.24L144.11 13.24L144.11 13.24Q143.68 13.43 143.02 13.57L143.02 13.57L143.02 13.57Q142.37 13.72 141.68 13.72L141.68 13.72L141.68 13.72Q140.46 13.72 139.48 13.43L139.48 13.43L139.48 13.43Q138.50 13.13 137.88 12.66L137.88 12.66L137.88 12.66Q137.26 12.18 136.84 11.54L136.84 11.54L136.84 11.54Q136.42 10.91 136.25 10.25L136.25 10.25L136.25 10.25Q136.08 9.60 136.08 8.90ZM154.38 8.69L154.38 8.69L154.38 8.69Q154.38 6.34 155.79 4.84L155.79 4.84L155.79 4.84Q157.21 3.33 159.80 3.33L159.80 3.33L159.80 3.33Q161 3.33 161.97 3.68L161.97 3.68L161.97 3.68Q162.93 4.03 163.49 4.54L163.49 4.54L163.49 4.54Q164.05 5.05 164.43 5.71L164.43 5.71L164.43 5.71Q164.81 6.37 164.95 6.92L164.95 6.92L164.95 6.92Q165.09 7.48 165.09 7.95L165.09 7.95L165.09 7.95Q165.09 9.86 164.35 11.16L164.35 11.16L164.35 11.16Q163.60 12.47 162.39 13.07L162.39 13.07L162.39 13.07Q161.18 13.66 159.60 13.66L159.60 13.66L159.60 13.66Q157.93 13.66 156.72 12.94L156.72 12.94L156.72 12.94Q155.51 12.21 154.94 11.10L154.94 11.10L154.94 11.10Q154.38 10.00 154.38 8.69ZM155.61 7.98L155.61 7.98L155.61 7.98Q155.61 8.54 155.76 9.19L155.76 9.19L155.76 9.19Q155.92 9.84 156.27 10.54L156.27 10.54L156.27 10.54Q156.62 11.23 157.12 11.78L157.12 11.78L157.12 11.78Q157.61 12.33 158.38 12.69L158.38 12.69L158.38 12.69Q159.14 13.05 160.05 13.05L160.05 13.05L160.05 13.05Q160.52 13.05 161.05 12.90L161.05 12.90L161.05 12.90Q161.57 12.75 162.09 12.45L162.09 12.45L162.09 12.45Q162.61 12.14 163.02 11.70L163.02 11.70L163.02 11.70Q163.42 11.26 163.68 10.62L163.68 10.62L163.68 10.62Q163.94 9.98 163.94 9.24L163.94 9.24L163.94 9.24Q163.94 6.71 162.61 5.30L162.61 5.30L162.61 5.30Q161.28 3.89 159.32 3.89L159.32 3.89L159.32 3.89Q157.78 3.89 156.69 4.93L156.69 4.93L156.69 4.93Q155.61 5.96 155.61 7.98ZM172.77 3.71L172.77 3.71L172.77 3.71Q172.77 3.50 173.03 3.50L173.03 3.50L173.03 3.50Q173.11 3.50 173.41 3.53L173.41 3.53L173.41 3.53Q173.71 3.56 173.77 3.56L173.77 3.56L173.77 3.56Q173.98 3.56 174.34 3.54L174.34 3.54L174.34 3.54Q174.71 3.53 174.82 3.53L174.82 3.53L174.82 3.53Q175.08 3.53 175.15 3.72L175.15 3.72L175.15 3.72Q175.32 4.09 175.76 5.03L175.76 5.03L175.76 5.03Q176.19 5.98 176.45 6.54L176.45 6.54L176.45 6.54Q176.71 7.10 177.11 7.97L177.11 7.97L177.11 7.97Q177.52 8.83 177.77 9.37L177.77 9.37L177.77 9.37Q178.02 9.91 178.30 10.46L178.30 10.46L178.30 10.46Q178.57 11.00 178.72 11.26L178.72 11.26L178.72 11.26Q178.86 11.52 178.91 11.52L178.91 11.52L178.91 11.52Q178.95 11.52 179.00 11.47L179.00 11.47L179.00 11.47Q179.05 11.42 179.09 11.34L179.09 11.34L179.09 11.34Q179.14 11.26 179.18 11.17L179.18 11.17L179.18 11.17Q179.21 11.09 179.28 10.96L179.28 10.96L179.28 10.96Q179.34 10.82 179.37 10.75L179.37 10.75L181.17 7.03L181.17 7.03Q181.48 6.40 181.72 5.89L181.72 5.89L181.72 5.89Q181.96 5.39 182.10 5.08L182.10 5.08L182.10 5.08Q182.24 4.77 182.34 4.55L182.34 4.55L182.34 4.55Q182.43 4.33 182.48 4.21L182.48 4.21L182.48 4.21Q182.53 4.10 182.55 4.04L182.55 4.04L182.55 4.04Q182.57 3.98 182.59 3.94L182.59 3.94L182.59 3.94Q182.60 3.91 182.62 3.88L182.62 3.88L182.62 3.88Q182.63 3.85 182.66 3.75L182.66 3.75L182.66 3.75Q182.70 3.65 182.74 3.62L182.74 3.62L182.74 3.62Q182.77 3.58 182.88 3.54L182.88 3.54L182.88 3.54Q182.98 3.50 183.15 3.50L183.15 3.50L183.15 3.50Q183.41 3.50 183.65 3.51L183.65 3.51L183.65 3.51Q183.88 3.53 184.35 3.53L184.35 3.53L184.35 3.53Q184.59 3.53 184.59 3.71L184.59 3.71L184.59 3.71Q184.59 3.85 184.50 3.91L184.50 3.91L184.50 3.91Q184.41 3.98 184.13 4.02L184.13 4.02L184.13 4.02Q183.78 4.06 183.64 4.37L183.64 4.37L183.64 4.37Q183.50 4.68 183.50 5.54L183.50 5.54L183.50 5.54Q183.50 7.43 183.58 8.97L183.58 8.97L183.58 8.97Q183.67 10.50 183.67 10.89L183.67 10.89L183.67 10.89Q183.67 12.29 183.89 12.68L183.89 12.68L183.89 12.68Q184.11 13.06 184.83 13.06L184.83 13.06L184.83 13.06Q184.93 13.06 185.00 13.13L185.00 13.13L185.00 13.13Q185.08 13.20 185.08 13.26L185.08 13.26L185.08 13.26Q185.08 13.34 185.07 13.38L185.07 13.38L185.07 13.38Q185.05 13.43 185.01 13.45L185.01 13.45L185.01 13.45Q184.97 13.48 184.93 13.48L184.93 13.48L184.93 13.48Q184.88 13.48 184.77 13.48L184.77 13.48L184.77 13.48Q184.35 13.48 183.95 13.45L183.95 13.45L183.95 13.45Q183.54 13.43 183.34 13.43L183.34 13.43L183.34 13.43Q182.95 13.43 182.53 13.46L182.53 13.46L182.53 13.46Q182.11 13.50 181.89 13.50L181.89 13.50L181.89 13.50Q181.64 13.50 181.64 13.30L181.64 13.30L181.64 13.30Q181.64 13.17 181.75 13.12L181.75 13.12L181.75 13.12Q181.86 13.06 182.01 13.05L182.01 13.05L182.01 13.05Q182.15 13.03 182.31 12.87L182.31 12.87L182.31 12.87Q182.48 12.71 182.55 12.39L182.55 12.39L182.55 12.39Q182.60 12.11 182.60 11.49L182.60 11.49L182.60 11.49Q182.60 11.05 182.58 10.42L182.58 10.42L182.58 10.42Q182.56 9.79 182.53 9.19L182.53 9.19L182.53 9.19Q182.50 8.60 182.48 8.07L182.48 8.07L182.48 8.07Q182.45 7.55 182.43 7.21L182.43 7.21L182.41 6.87L182.41 6.87Q182.41 6.27 182.28 6.27L182.28 6.27L182.28 6.27Q182.27 6.27 182.24 6.29L182.24 6.29L182.24 6.29Q182.21 6.30 182.19 6.33L182.19 6.33L182.19 6.33Q182.17 6.36 182.14 6.38L182.14 6.38L182.14 6.38Q182.11 6.41 182.08 6.47L182.08 6.47L182.08 6.47Q182.06 6.54 182.03 6.58L182.03 6.58L182.03 6.58Q182 6.62 181.96 6.70L181.96 6.70L181.96 6.70Q181.92 6.78 181.89 6.83L181.89 6.83L181.89 6.83Q181.86 6.89 181.81 6.99L181.81 6.99L181.81 6.99Q181.76 7.08 181.73 7.15L181.73 7.15L179.79 11.09L179.79 11.09Q179.45 11.77 179.07 12.56L179.07 12.56L179.07 12.56Q178.82 13.09 178.77 13.18L178.77 13.18L178.77 13.18Q178.71 13.27 178.63 13.27L178.63 13.27L178.63 13.27Q178.50 13.27 178.42 13.15L178.42 13.15L178.42 13.15Q178.33 13.03 178.16 12.63L178.16 12.63L178.16 12.63Q178.00 12.22 177.87 11.96L177.87 11.96L177.87 11.96Q175.31 6.75 175.24 6.65L175.24 6.65L175.24 6.65Q175.20 6.59 175.15 6.59L175.15 6.59L175.15 6.59Q175.04 6.59 175.04 7.15L175.04 7.15L175.04 7.15Q175.03 8.25 174.97 9.31L174.97 9.31L174.97 9.31Q174.92 10.37 174.92 10.85L174.92 10.85L174.92 11.48L174.92 11.48Q174.92 11.84 174.94 12.04L174.94 12.04L174.94 12.04Q174.96 12.24 175.05 12.49L175.05 12.49L175.05 12.49Q175.14 12.75 175.38 12.89L175.38 12.89L175.38 12.89Q175.62 13.03 175.99 13.08L175.99 13.08L175.99 13.08Q176.06 13.08 176.13 13.13L176.13 13.13L176.13 13.13Q176.19 13.17 176.19 13.23L176.19 13.23L176.19 13.23Q176.19 13.38 176.15 13.43L176.15 13.43L176.15 13.43Q176.11 13.48 175.98 13.48L175.98 13.48L175.98 13.48Q175.70 13.48 175.14 13.45L175.14 13.45L175.14 13.45Q174.58 13.43 174.52 13.43L174.52 13.43L174.52 13.43Q174.50 13.43 174.12 13.45L174.12 13.45L174.12 13.45Q173.74 13.47 173.38 13.47L173.38 13.47L173.38 13.47Q173.26 13.47 173.22 13.45L173.22 13.45L173.22 13.45Q173.17 13.44 173.12 13.39L173.12 13.39L173.12 13.39Q173.08 13.34 173.08 13.24L173.08 13.24L173.08 13.24Q173.08 13.13 173.21 13.09L173.21 13.09L173.21 13.09Q173.33 13.05 173.50 13.04L173.50 13.04L173.50 13.04Q173.66 13.03 173.85 12.82L173.85 12.82L173.85 12.82Q174.05 12.60 174.15 12.18L174.15 12.18L174.15 12.18Q174.22 11.87 174.31 9.74L174.31 9.74L174.31 9.74Q174.41 7.62 174.41 6.59L174.41 6.59L174.41 6.59Q174.41 5.19 174.14 4.66L174.14 4.66L174.14 4.66Q173.87 4.13 172.96 3.92L172.96 3.92L172.96 3.92Q172.77 3.88 172.77 3.71ZM192.64 3.72L192.64 3.72L192.64 3.72Q192.64 3.50 192.96 3.50L192.96 3.50L192.96 3.50Q193.00 3.50 193.12 3.49L193.12 3.49L193.12 3.49Q193.23 3.49 193.48 3.49L193.48 3.49L193.48 3.49Q193.55 3.49 193.87 3.51L193.87 3.51L193.87 3.51Q194.18 3.53 194.32 3.53L194.32 3.53L194.32 3.53Q194.63 3.53 195.51 3.51L195.51 3.51L195.51 3.51Q196.39 3.49 196.63 3.49L196.63 3.49L196.63 3.49Q197.95 3.49 198.90 4.15L198.90 4.15L198.90 4.15Q199.85 4.82 199.85 6.06L199.85 6.06L199.85 6.06Q199.85 6.75 199.60 7.29L199.60 7.29L199.60 7.29Q199.35 7.83 198.99 8.13L198.99 8.13L198.99 8.13Q198.63 8.44 198.19 8.64L198.19 8.64L198.19 8.64Q197.75 8.85 197.41 8.91L197.41 8.91L197.41 8.91Q197.06 8.97 196.80 8.97L196.80 8.97L196.80 8.97Q196.35 8.97 195.89 8.87L195.89 8.87L195.89 8.87Q195.43 8.76 195.43 8.65L195.43 8.65L195.43 8.65Q195.43 8.44 195.61 8.44L195.61 8.44L195.61 8.44Q195.68 8.44 195.90 8.50L195.90 8.50L195.90 8.50Q196.11 8.55 196.32 8.55L196.32 8.55L196.32 8.55Q196.64 8.55 197.01 8.46L197.01 8.46L197.01 8.46Q197.37 8.37 197.76 8.17L197.76 8.17L197.76 8.17Q198.16 7.97 198.41 7.55L198.41 7.55L198.41 7.55Q198.66 7.14 198.66 6.59L198.66 6.59L198.66 6.59Q198.66 5.66 197.90 4.85L197.90 4.85L197.90 4.85Q197.15 4.05 195.82 4.05L195.82 4.05L195.82 4.05Q195.38 4.05 195.23 4.30L195.23 4.30L195.23 4.30Q195.08 4.56 195.08 5.47L195.08 5.47L195.08 5.47Q195.08 8.39 195.06 8.80L195.06 8.80L195.06 8.80Q195.05 9.21 195.05 11.26L195.05 11.26L195.05 11.26Q195.05 12.49 195.62 12.87L195.62 12.87L195.62 12.87Q195.78 12.96 196.01 12.99L196.01 12.99L196.01 12.99Q196.24 13.02 196.39 13.01L196.39 13.01L196.39 13.01Q196.55 13.01 196.67 13.07L196.67 13.07L196.67 13.07Q196.78 13.13 196.78 13.30L196.78 13.30L196.78 13.30Q196.78 13.54 196.46 13.54L196.46 13.54L196.46 13.54Q196.14 13.54 195.33 13.50L195.33 13.50L195.33 13.50Q194.52 13.47 194.46 13.47L194.46 13.47L194.46 13.47Q194.32 13.47 193.91 13.50L193.91 13.50L193.91 13.50Q193.49 13.52 193.16 13.52L193.16 13.52L193.16 13.52Q192.72 13.52 192.72 13.37L192.72 13.37L192.72 13.37Q192.72 13.29 192.75 13.23L192.75 13.23L192.75 13.23Q192.77 13.17 192.79 13.14L192.79 13.14L192.79 13.14Q192.81 13.10 192.88 13.08L192.88 13.08L192.88 13.08Q192.95 13.05 192.98 13.03L192.98 13.03L192.98 13.03Q193.00 13.02 193.11 13.00L193.11 13.00L193.11 13.00Q193.21 12.98 193.26 12.96L193.26 12.96L193.26 12.96Q193.28 12.95 193.34 12.94L193.34 12.94L193.34 12.94Q193.40 12.94 193.42 12.93L193.42 12.93L193.42 12.93Q193.44 12.92 193.49 12.89L193.49 12.89L193.49 12.89Q193.54 12.85 193.56 12.79L193.56 12.79L193.56 12.79Q193.59 12.73 193.64 12.62L193.64 12.62L193.64 12.62Q193.69 12.52 193.75 12.35L193.75 12.35L193.75 12.35Q193.84 12.08 193.90 10.25L193.90 10.25L193.90 10.25Q193.96 8.41 193.96 7.41L193.96 7.41L193.96 7.41Q193.96 6.54 193.95 5.80L193.95 5.80L193.95 5.80Q193.94 5.07 193.94 5.03L193.94 5.03L193.94 5.03Q193.94 4.65 193.70 4.28L193.70 4.28L193.70 4.28Q193.47 3.91 192.92 3.91L192.92 3.91L192.92 3.91Q192.64 3.91 192.64 3.72ZM206.25 13.33L206.25 13.33L206.25 13.33Q206.25 13.13 206.46 13.06L206.46 13.06L206.46 13.06Q206.91 12.89 207.24 12.31L207.24 12.31L207.24 12.31Q207.58 11.73 208.91 8.83L208.91 8.83L208.91 8.83Q210.28 5.87 211.33 3.63L211.33 3.63L211.33 3.63Q211.43 3.42 211.50 3.36L211.50 3.36L211.50 3.36Q211.58 3.30 211.75 3.30L211.75 3.30L211.75 3.30Q211.88 3.30 211.92 3.36L211.92 3.36L211.92 3.36Q211.96 3.42 212.10 3.82L212.10 3.82L212.10 3.82Q212.18 4.06 212.25 4.23L212.25 4.23L212.25 4.23Q212.31 4.40 212.45 4.77L212.45 4.77L212.45 4.77Q212.59 5.15 212.76 5.56L212.76 5.56L212.76 5.56Q213.21 6.66 214.30 9.22L214.30 9.22L214.30 9.22Q215.40 11.77 215.50 11.98L215.50 11.98L215.50 11.98Q215.74 12.46 216.03 12.71L216.03 12.71L216.03 12.71Q216.33 12.95 216.54 12.97L216.54 12.97L216.54 12.97Q216.76 12.99 216.91 13.04L216.91 13.04L216.91 13.04Q217.06 13.09 217.06 13.26L217.06 13.26L217.06 13.26Q217.06 13.47 216.68 13.47L216.68 13.47L216.68 13.47Q216.52 13.47 216.08 13.43L216.08 13.43L216.08 13.43Q215.63 13.38 215.42 13.38L215.42 13.38L215.42 13.38Q215.15 13.38 214.73 13.41L214.73 13.41L214.73 13.41Q214.31 13.44 214.12 13.44L214.12 13.44L214.12 13.44Q213.68 13.44 213.56 13.40L213.56 13.40L213.56 13.40Q213.44 13.37 213.44 13.24L213.44 13.24L213.44 13.24Q213.44 13.15 213.56 13.08L213.56 13.08L213.56 13.08Q213.67 13.02 213.79 13.00L213.79 13.00L213.79 13.00Q213.92 12.98 214.03 12.87L214.03 12.87L214.03 12.87Q214.14 12.77 214.14 12.59L214.14 12.59L214.14 12.59Q214.14 12.28 213.79 11.33L213.79 11.33L213.79 11.33Q213.44 10.37 213.21 9.93L213.21 9.93L213.21 9.93Q213.08 9.69 212.63 9.69L212.63 9.69L212.63 9.69Q212.56 9.69 212.02 9.70L212.02 9.70L212.02 9.70Q211.47 9.72 210.94 9.72L210.94 9.72L210.20 9.72L210.20 9.72Q209.57 9.72 209.41 9.79L209.41 9.79L209.41 9.79Q209.24 9.86 209.12 10.12L209.12 10.12L209.12 10.12Q209.03 10.30 208.84 10.70L208.84 10.70L208.84 10.70Q208.64 11.10 208.57 11.26L208.57 11.26L208.57 11.26Q208.50 11.41 208.40 11.65L208.40 11.65L208.40 11.65Q208.29 11.90 208.26 12.05L208.26 12.05L208.26 12.05Q208.22 12.19 208.22 12.31L208.22 12.31L208.22 12.31Q208.22 12.63 208.38 12.80L208.38 12.80L208.38 12.80Q208.54 12.96 208.74 12.98L208.74 12.98L208.74 12.98Q208.94 13.01 209.10 13.06L209.10 13.06L209.10 13.06Q209.26 13.12 209.26 13.26L209.26 13.26L209.26 13.26Q209.26 13.36 209.22 13.40L209.22 13.40L209.22 13.40Q209.17 13.45 209.02 13.45L209.02 13.45L209.02 13.45Q208.94 13.45 208.54 13.45L208.54 13.45L208.54 13.45Q208.14 13.44 207.86 13.44L207.86 13.44L207.86 13.44Q207.55 13.44 207.16 13.47L207.16 13.47L207.16 13.47Q206.78 13.50 206.65 13.50L206.65 13.50L206.65 13.50Q206.25 13.50 206.25 13.33ZM209.76 8.71L209.76 8.71L209.76 8.71Q209.76 8.89 209.89 8.93L209.89 8.93L209.89 8.93Q210.01 8.97 210.48 8.97L210.48 8.97L210.91 8.97L212.24 8.96L212.24 8.96Q212.79 8.96 212.79 8.74L212.79 8.74L212.79 8.74Q212.79 8.55 212.10 7.01L212.10 7.01L212.10 7.01Q211.41 5.46 211.23 5.46L211.23 5.46L211.23 5.46Q211.11 5.46 210.43 7.01L210.43 7.01L210.43 7.01Q209.76 8.55 209.76 8.71ZM224.62 3.77L224.62 3.77L224.62 3.77Q224.62 3.68 224.71 3.60L224.71 3.60L224.71 3.60Q224.81 3.53 224.97 3.53L224.97 3.53L224.97 3.53Q225.05 3.53 225.25 3.54L225.25 3.54L225.25 3.54Q225.44 3.54 225.50 3.54L225.50 3.54L225.50 3.54Q225.71 3.54 225.89 3.53L225.89 3.53L225.89 3.53Q226.07 3.51 226.18 3.51L226.18 3.51L226.18 3.51Q226.31 3.51 226.48 3.59L226.48 3.59L226.48 3.59Q226.65 3.67 226.67 3.75L226.67 3.75L226.67 3.75Q226.70 3.79 226.83 3.94L226.83 3.94L226.83 3.94Q226.95 4.09 227.16 4.33L227.16 4.33L227.16 4.33Q227.37 4.56 227.54 4.79L227.54 4.79L227.54 4.79Q229.45 7.27 232.64 10.77L232.64 10.77L232.64 10.77Q232.72 10.86 232.84 10.99L232.84 10.99L232.84 10.99Q232.96 11.12 233.01 11.18L233.01 11.18L233.01 11.18Q233.06 11.24 233.11 11.30L233.11 11.30L233.11 11.30Q233.17 11.35 233.20 11.38L233.20 11.38L233.20 11.38Q233.24 11.40 233.27 11.40L233.27 11.40L233.27 11.40Q233.41 11.40 233.41 10.53L233.41 10.53L233.41 8.89L233.41 8.89Q233.41 7.95 233.40 7.31L233.40 7.31L233.40 7.31Q233.39 6.66 233.39 6.38L233.39 6.38L233.39 6.38Q233.38 6.09 233.38 6.02L233.38 6.02L233.38 5.92L233.38 5.92Q233.38 5.45 233.32 5.11L233.32 5.11L233.32 5.11Q233.25 4.77 233.17 4.59L233.17 4.59L233.17 4.59Q233.09 4.41 232.92 4.28L232.92 4.28L232.92 4.28Q232.76 4.16 232.65 4.12L232.65 4.12L232.65 4.12Q232.54 4.09 232.33 4.05L232.33 4.05L232.33 4.05Q232.12 4.00 232.04 3.98L232.04 3.98L232.04 3.98Q231.76 3.89 231.76 3.74L231.76 3.74L231.76 3.74Q231.76 3.53 232.02 3.53L232.02 3.53L232.02 3.53Q232.11 3.53 232.69 3.54L232.69 3.54L232.69 3.54Q233.28 3.54 233.35 3.54L233.35 3.54L233.35 3.54Q233.69 3.54 234.10 3.53L234.10 3.53L234.10 3.53Q234.51 3.51 234.61 3.51L234.61 3.51L234.61 3.51Q234.85 3.51 234.94 3.56L234.94 3.56L234.94 3.56Q235.03 3.61 235.03 3.75L235.03 3.75L235.03 3.75Q235.03 3.81 234.95 3.86L234.95 3.86L234.95 3.86Q234.88 3.91 234.79 3.94L234.79 3.94L234.79 3.94Q234.71 3.98 234.63 4.00L234.63 4.00L234.54 4.03L234.54 4.03Q234.08 4.28 234.08 5.61L234.08 5.61L234.08 6.15L234.08 6.15Q234.08 7.21 234.00 9.83L234.00 9.83L234.00 9.83Q233.93 12.46 233.93 13.08L233.93 13.08L233.93 13.36L233.93 13.36Q233.93 13.68 233.73 13.68L233.73 13.68L233.73 13.68Q233.60 13.68 233.51 13.58L233.51 13.58L233.51 13.58Q228.86 8.19 227.95 7.17L227.95 7.17L227.95 7.17Q227.05 6.16 226.95 6.16L226.95 6.16L226.95 6.16Q226.81 6.16 226.81 7.11L226.81 7.11L226.81 7.11Q226.81 8.44 226.76 9.97L226.76 9.97L226.76 9.97Q226.70 11.51 226.70 11.65L226.70 11.65L226.70 11.65Q226.70 12.28 226.92 12.61L226.92 12.61L226.92 12.61Q227.14 12.94 227.39 12.98L227.39 12.98L227.39 12.98Q227.64 13.02 227.86 13.07L227.86 13.07L227.86 13.07Q228.07 13.12 228.07 13.26L228.07 13.26L228.07 13.26Q228.07 13.41 228.02 13.45L228.02 13.45L228.02 13.45Q227.98 13.50 227.85 13.50L227.85 13.50L227.85 13.50Q227.75 13.50 227.41 13.48L227.41 13.48L227.41 13.48Q227.07 13.47 226.35 13.47L226.35 13.47L226.35 13.47Q226.23 13.47 225.83 13.48L225.83 13.48L225.83 13.48Q225.44 13.50 225.16 13.50L225.16 13.50L225.16 13.50Q224.85 13.50 224.85 13.27L224.85 13.27L224.85 13.27Q224.85 13.15 225.04 13.11L225.04 13.11L225.04 13.11Q225.22 13.08 225.48 12.89L225.48 12.89L225.48 12.89Q225.75 12.71 225.89 12.21L225.89 12.21L225.89 12.21Q225.97 11.89 226.10 9.60L226.10 9.60L226.10 9.60Q226.23 7.32 226.23 6.45L226.23 6.45L226.23 6.45Q226.23 5.25 225.89 4.65L225.89 4.65L225.89 4.65Q225.55 4.06 224.80 3.98L224.80 3.98L224.80 3.98Q224.62 3.96 224.62 3.77ZM242.79 3.71L242.79 3.71L242.79 3.71Q242.79 3.50 243.18 3.50L243.18 3.50L243.18 3.50Q243.32 3.50 243.82 3.53L243.82 3.53L243.82 3.53Q244.33 3.56 244.76 3.56L244.76 3.56L244.76 3.56Q245.03 3.56 245.27 3.54L245.27 3.54L245.27 3.54Q245.52 3.53 245.99 3.53L245.99 3.53L245.99 3.53Q246.37 3.53 246.37 3.72L246.37 3.72L246.37 3.72Q246.37 3.84 245.73 4.10L245.73 4.10L245.73 4.10Q245.28 4.28 245.28 5.71L245.28 5.71L245.28 5.71Q245.28 7.60 245.26 9.05L245.26 9.05L245.26 9.05Q245.24 10.50 245.24 10.89L245.24 10.89L245.24 10.89Q245.24 12.07 245.59 12.59L245.59 12.59L245.59 12.59Q245.90 13.02 246.26 13.02L246.26 13.02L246.26 13.02Q246.29 13.02 246.40 13.03L246.40 13.03L246.40 13.03Q246.51 13.03 246.54 13.03L246.54 13.03L246.54 13.03Q246.64 13.03 246.74 13.08L246.74 13.08L246.74 13.08Q246.83 13.13 246.83 13.19L246.83 13.19L246.83 13.19Q246.83 13.34 246.76 13.39L246.76 13.39L246.76 13.39Q246.68 13.44 246.48 13.44L246.48 13.44L246.48 13.44Q246.06 13.44 245.71 13.41L245.71 13.41L245.71 13.41Q245.35 13.38 245.15 13.38L245.15 13.38L245.15 13.38Q244.76 13.38 244.30 13.42L244.30 13.42L244.30 13.42Q243.84 13.45 243.61 13.45L243.61 13.45L243.61 13.45Q242.98 13.45 242.98 13.24L242.98 13.24L242.98 13.24Q242.98 13.12 243.12 13.07L243.12 13.07L243.12 13.07Q243.25 13.02 243.42 13.00L243.42 13.00L243.42 13.00Q243.59 12.98 243.77 12.82L243.77 12.82L243.77 12.82Q243.95 12.66 244.02 12.35L244.02 12.35L244.02 12.35Q244.05 12.25 244.11 10.76L244.11 10.76L244.11 10.76Q244.17 9.27 244.17 8.61L244.17 8.61L244.17 7.81L244.17 7.81Q244.17 7.63 244.18 7.12L244.18 7.12L244.18 7.12Q244.19 6.61 244.19 6.30L244.19 6.30L244.19 5.66L244.19 5.66Q244.19 5.04 244.13 4.63L244.13 4.63L244.13 4.63Q244.09 4.30 243.76 4.12L243.76 4.12L243.76 4.12Q243.43 3.93 243.08 3.92L243.08 3.92L243.08 3.92Q242.79 3.91 242.79 3.71ZM254.72 8.69L254.72 8.69L254.72 8.69Q254.72 6.34 256.13 4.84L256.13 4.84L256.13 4.84Q257.54 3.33 260.13 3.33L260.13 3.33L260.13 3.33Q261.34 3.33 262.30 3.68L262.30 3.68L262.30 3.68Q263.27 4.03 263.83 4.54L263.83 4.54L263.83 4.54Q264.39 5.05 264.77 5.71L264.77 5.71L264.77 5.71Q265.15 6.37 265.29 6.92L265.29 6.92L265.29 6.92Q265.43 7.48 265.43 7.95L265.43 7.95L265.43 7.95Q265.43 9.86 264.68 11.16L264.68 11.16L264.68 11.16Q263.94 12.47 262.73 13.07L262.73 13.07L262.73 13.07Q261.52 13.66 259.94 13.66L259.94 13.66L259.94 13.66Q258.27 13.66 257.06 12.94L257.06 12.94L257.06 12.94Q255.85 12.21 255.28 11.10L255.28 11.10L255.28 11.10Q254.72 10.00 254.72 8.69ZM255.95 7.98L255.95 7.98L255.95 7.98Q255.95 8.54 256.10 9.19L256.10 9.19L256.10 9.19Q256.26 9.84 256.61 10.54L256.61 10.54L256.61 10.54Q256.96 11.23 257.45 11.78L257.45 11.78L257.45 11.78Q257.95 12.33 258.71 12.69L258.71 12.69L258.71 12.69Q259.48 13.05 260.39 13.05L260.39 13.05L260.39 13.05Q260.86 13.05 261.39 12.90L261.39 12.90L261.39 12.90Q261.91 12.75 262.43 12.45L262.43 12.45L262.43 12.45Q262.95 12.14 263.35 11.70L263.35 11.70L263.35 11.70Q263.76 11.26 264.02 10.62L264.02 10.62L264.02 10.62Q264.28 9.98 264.28 9.24L264.28 9.24L264.28 9.24Q264.28 6.71 262.95 5.30L262.95 5.30L262.95 5.30Q261.62 3.89 259.66 3.89L259.66 3.89L259.66 3.89Q258.12 3.89 257.03 4.93L257.03 4.93L257.03 4.93Q255.95 5.96 255.95 7.98ZM273.11 3.77L273.11 3.77L273.11 3.77Q273.11 3.68 273.21 3.60L273.21 3.60L273.21 3.60Q273.31 3.53 273.46 3.53L273.46 3.53L273.46 3.53Q273.55 3.53 273.74 3.54L273.74 3.54L273.74 3.54Q273.94 3.54 273.99 3.54L273.99 3.54L273.99 3.54Q274.20 3.54 274.39 3.53L274.39 3.53L274.39 3.53Q274.57 3.51 274.68 3.51L274.68 3.51L274.68 3.51Q274.81 3.51 274.97 3.59L274.97 3.59L274.97 3.59Q275.14 3.67 275.17 3.75L275.17 3.75L275.17 3.75Q275.20 3.79 275.32 3.94L275.32 3.94L275.32 3.94Q275.45 4.09 275.66 4.33L275.66 4.33L275.66 4.33Q275.87 4.56 276.04 4.79L276.04 4.79L276.04 4.79Q277.94 7.27 281.13 10.77L281.13 10.77L281.13 10.77Q281.22 10.86 281.34 10.99L281.34 10.99L281.34 10.99Q281.46 11.12 281.50 11.18L281.50 11.18L281.50 11.18Q281.55 11.24 281.61 11.30L281.61 11.30L281.61 11.30Q281.67 11.35 281.70 11.38L281.70 11.38L281.70 11.38Q281.74 11.40 281.76 11.40L281.76 11.40L281.76 11.40Q281.90 11.40 281.90 10.53L281.90 10.53L281.90 8.89L281.90 8.89Q281.90 7.95 281.90 7.31L281.90 7.31L281.90 7.31Q281.89 6.66 281.88 6.38L281.88 6.38L281.88 6.38Q281.88 6.09 281.88 6.02L281.88 6.02L281.88 5.92L281.88 5.92Q281.88 5.45 281.81 5.11L281.81 5.11L281.81 5.11Q281.75 4.77 281.67 4.59L281.67 4.59L281.67 4.59Q281.58 4.41 281.42 4.28L281.42 4.28L281.42 4.28Q281.26 4.16 281.15 4.12L281.15 4.12L281.15 4.12Q281.04 4.09 280.83 4.05L280.83 4.05L280.83 4.05Q280.62 4.00 280.53 3.98L280.53 3.98L280.53 3.98Q280.25 3.89 280.25 3.74L280.25 3.74L280.25 3.74Q280.25 3.53 280.52 3.53L280.52 3.53L280.52 3.53Q280.60 3.53 281.19 3.54L281.19 3.54L281.19 3.54Q281.78 3.54 281.85 3.54L281.85 3.54L281.85 3.54Q282.18 3.54 282.60 3.53L282.60 3.53L282.60 3.53Q283.01 3.51 283.11 3.51L283.11 3.51L283.11 3.51Q283.35 3.51 283.44 3.56L283.44 3.56L283.44 3.56Q283.53 3.61 283.53 3.75L283.53 3.75L283.53 3.75Q283.53 3.81 283.45 3.86L283.45 3.86L283.45 3.86Q283.37 3.91 283.29 3.94L283.29 3.94L283.29 3.94Q283.21 3.98 283.12 4.00L283.12 4.00L283.04 4.03L283.04 4.03Q282.58 4.28 282.58 5.61L282.58 5.61L282.58 6.15L282.58 6.15Q282.58 7.21 282.50 9.83L282.50 9.83L282.50 9.83Q282.42 12.46 282.42 13.08L282.42 13.08L282.42 13.36L282.42 13.36Q282.42 13.68 282.23 13.68L282.23 13.68L282.23 13.68Q282.10 13.68 282.00 13.58L282.00 13.58L282.00 13.58Q277.35 8.19 276.45 7.17L276.45 7.17L276.45 7.17Q275.55 6.16 275.45 6.16L275.45 6.16L275.45 6.16Q275.31 6.16 275.31 7.11L275.31 7.11L275.31 7.11Q275.31 8.44 275.25 9.97L275.25 9.97L275.25 9.97Q275.20 11.51 275.20 11.65L275.20 11.65L275.20 11.65Q275.20 12.28 275.42 12.61L275.42 12.61L275.42 12.61Q275.63 12.94 275.88 12.98L275.88 12.98L275.88 12.98Q276.14 13.02 276.35 13.07L276.35 13.07L276.35 13.07Q276.57 13.12 276.57 13.26L276.57 13.26L276.57 13.26Q276.57 13.41 276.52 13.45L276.52 13.45L276.52 13.45Q276.47 13.50 276.35 13.50L276.35 13.50L276.35 13.50Q276.25 13.50 275.90 13.48L275.90 13.48L275.90 13.48Q275.56 13.47 274.85 13.47L274.85 13.47L274.85 13.47Q274.72 13.47 274.33 13.48L274.33 13.48L274.33 13.48Q273.94 13.50 273.66 13.50L273.66 13.50L273.66 13.50Q273.35 13.50 273.35 13.27L273.35 13.27L273.35 13.27Q273.35 13.15 273.53 13.11L273.53 13.11L273.53 13.11Q273.71 13.08 273.98 12.89L273.98 12.89L273.98 12.89Q274.25 12.71 274.39 12.21L274.39 12.21L274.39 12.21Q274.47 11.89 274.60 9.60L274.60 9.60L274.60 9.60Q274.72 7.32 274.72 6.45L274.72 6.45L274.72 6.45Q274.72 5.25 274.39 4.65L274.39 4.65L274.39 4.65Q274.05 4.06 273.29 3.98L273.29 3.98L273.29 3.98Q273.11 3.96 273.11 3.77Z"></path></g></svg>