<svg data-v-fde0c5aa="" xmlns="http://www.w3.org/2000/svg" viewBox="0 0 300 300" class="font"><!----><defs data-v-fde0c5aa=""><!----></defs><rect data-v-fde0c5aa="" fill="transparent" x="0" y="0" width="300px" height="300px" class="logo-background-square"></rect><defs data-v-fde0c5aa=""><linearGradient data-v-fde0c5aa="" gradientTransform="rotate(25)" id="d0188f4a-2cb7-4e49-bf5c-2345ff4afd38" x1="0%" y1="0%" x2="100%" y2="0%"><stop data-v-fde0c5aa="" offset="0%" stop-color="#D0A070" stop-opacity="1"></stop><stop data-v-fde0c5aa="" offset="100%" stop-color="#6BE371" stop-opacity="1"></stop></linearGradient></defs><g data-v-fde0c5aa="" id="fdac8bf8-3977-4e66-9d38-d27c6de8e172" fill="url(#d0188f4a-2cb7-4e49-bf5c-2345ff4afd38)" transform="matrix(3.286525126624694,0,0,3.286525126624694,39.80280848456683,122.75470604208363)"><path d="M7.26 3.82L0.06 3.82L0.06 5.09L2.93 5.09L2.93 13.15L4.42 13.15L4.42 5.09L7.26 5.09ZM11.29 6.36C10.50 6.36 9.98 6.74 9.60 7.41L9.42 6.53L8.20 6.53L8.20 13.15L9.61 13.15L9.61 9.70C9.61 8.62 10.18 7.66 11.21 7.66C11.45 7.66 11.67 7.70 11.86 7.79L12.28 6.58C12.10 6.47 11.73 6.36 11.29 6.36ZM15.17 13.34C16.10 13.34 16.98 12.94 17.43 12.31L17.65 13.15L18.84 13.15L18.84 9.19C18.84 7.31 17.86 6.36 15.91 6.36C14.93 6.36 14.12 6.61 13.49 7.10L14.12 8.08C14.55 7.70 15.12 7.51 15.76 7.51C16.81 7.51 17.43 8.01 17.43 8.90L17.43 9.45L17.25 9.39C14.38 8.31 12.80 9.79 12.80 11.21C12.80 12.45 13.85 13.34 15.17 13.34ZM15.59 12.25C14.76 12.25 14.29 11.72 14.29 11.11C14.29 10.34 15.18 9.57 17.24 10.30L17.43 10.35L17.43 10.54C17.43 11.62 16.55 12.25 15.59 12.25ZM25.45 3.24L25.45 7.32C24.94 6.72 24.21 6.36 23.26 6.36C21.54 6.36 20.17 7.69 20.17 9.84C20.17 12.00 21.54 13.31 23.26 13.31C24.25 13.31 25.02 12.91 25.54 12.25L25.71 13.15L26.86 13.15L26.86 3.24ZM23.60 12.12C22.40 12.12 21.61 11.14 21.61 9.84C21.61 8.55 22.40 7.55 23.60 7.55C24.84 7.55 25.64 8.55 25.64 9.84C25.64 11.14 24.84 12.12 23.60 12.12ZM34.91 9.70C34.91 7.73 33.59 6.36 31.66 6.36C29.66 6.36 28.25 7.89 28.25 9.84C28.25 11.80 29.65 13.31 31.82 13.31C32.97 13.31 33.94 12.92 34.53 12.25L33.56 11.46C33.13 11.94 32.56 12.19 31.81 12.19C30.57 12.19 29.84 11.33 29.74 10.15L34.91 10.15ZM31.66 7.50C32.70 7.50 33.37 8.12 33.51 9.17L29.79 9.17C30.00 8.17 30.68 7.50 31.66 7.50ZM35.66 12.22C36.14 12.88 37.14 13.34 38.38 13.34C40.02 13.34 41.02 12.54 41.02 11.35C41.02 9.00 37.52 9.79 37.52 8.36C37.52 7.86 37.90 7.53 38.67 7.51C39.16 7.50 39.71 7.73 40.10 8.11L40.88 7.22C40.44 6.75 39.59 6.36 38.62 6.36C37.04 6.36 36.08 7.19 36.08 8.41C36.08 10.82 39.52 10.09 39.52 11.38C39.52 11.87 39.11 12.21 38.30 12.21C37.64 12.21 37.04 11.97 36.56 11.35ZM45.44 11.93C45.35 11.99 45.12 12.06 44.84 12.06C44.39 12.06 44.11 11.80 44.11 11.20L44.11 7.67L45.51 7.67L45.51 6.53L44.11 6.53L44.11 4.64L42.70 4.64L42.70 6.53L41.82 6.53L41.82 7.67L42.70 7.67L42.70 11.32C42.70 12.91 43.69 13.27 44.51 13.27C45.03 13.27 45.46 13.17 45.63 13.08ZM48.81 13.34C49.74 13.34 50.62 12.94 51.07 12.31L51.29 13.15L52.49 13.15L52.49 9.19C52.49 7.31 51.51 6.36 49.55 6.36C48.58 6.36 47.76 6.61 47.13 7.10L47.76 8.08C48.20 7.70 48.77 7.51 49.41 7.51C50.46 7.51 51.07 8.01 51.07 8.90L51.07 9.45L50.90 9.39C48.02 8.31 46.45 9.79 46.45 11.21C46.45 12.45 47.50 13.34 48.81 13.34ZM49.23 12.25C48.40 12.25 47.94 11.72 47.94 11.11C47.94 10.34 48.82 9.57 50.88 10.30L51.07 10.35L51.07 10.54C51.07 11.62 50.20 12.25 49.23 12.25ZM57.28 13.34C58.20 13.34 58.95 13.07 59.56 12.60L58.74 11.58C58.38 11.93 57.87 12.13 57.31 12.13C56.01 12.13 55.24 11.14 55.24 9.84C55.24 8.55 56.01 7.57 57.31 7.57C57.87 7.57 58.38 7.77 58.74 8.12L59.56 7.10C58.95 6.64 58.20 6.36 57.28 6.36C55.23 6.36 53.80 7.89 53.80 9.84C53.80 11.81 55.23 13.34 57.28 13.34ZM65.17 13.15L67.00 13.15L63.93 9.13L66.60 6.53L64.79 6.53L62.07 9.17L62.07 3.24L60.65 3.24L60.65 13.15L62.07 13.15L62.07 10.94L62.96 10.08Z"></path></g><!----><!----></svg>